<svg xmlns="http://www.w3.org/2000/svg" viewBox="0 0 200 200" fill="none">
  <defs>
    <linearGradient id="av2" x1="0" y1="0" x2="200" y2="200" gradientUnits="userSpaceOnUse">
      <stop offset="0%" stop-color="#4FC3F7"/>
      <stop offset="100%" stop-color="#1565C0"/>
    </linearGradient>
  </defs>
  <rect width="200" height="200" rx="100" fill="#1a1535"/>
  <ellipse cx="100" cy="215" rx="70" ry="55" fill="url(#av2)" fill-opacity="0.12"/>
  <rect x="84" y="128" width="32" height="28" rx="8" fill="url(#av2)" fill-opacity="0.1"/>
  <ellipse cx="100" cy="92" rx="36" ry="42" fill="url(#av2)" fill-opacity="0.1" stroke="url(#av2)" stroke-width="1.2" opacity="0.5"/>
  <!-- Short hair male -->
  <path d="M64 88 Q66 52 82 40 Q96 30 108 32 Q126 36 136 52 Q142 68 140 88 L135 86 Q134 65 126 52 Q116 40 104 38 Q90 38 80 50 Q72 62 70 86 Z" fill="url(#av2)" fill-opacity="0.18"/>
  <ellipse cx="88" cy="90" rx="4.5" ry="3" fill="url(#av2)" fill-opacity="0.25"/>
  <ellipse cx="112" cy="90" rx="4.5" ry="3" fill="url(#av2)" fill-opacity="0.25"/>
  <path d="M92 108 Q100 114 108 108" stroke="url(#av2)" stroke-width="1.2" fill="none" opacity="0.2"/>
  <circle cx="100" cy="100" r="75" stroke="url(#av2)" stroke-width="0.4" fill="none" opacity="0.08"/>
</svg>
