<svg xmlns="http://www.w3.org/2000/svg" viewBox="0 0 300 300" fill="none">
  <defs>
    <linearGradient id="tg4" x1="0" y1="0" x2="300" y2="300" gradientUnits="userSpaceOnUse">
      <stop offset="0%" stop-color="#FFB74D"/>
      <stop offset="100%" stop-color="#E65100"/>
    </linearGradient>
  </defs>
  <rect width="300" height="300" rx="150" fill="#1a1535"/>
  <!-- Shoulders -->
  <ellipse cx="150" cy="320" rx="105" ry="82" fill="url(#tg4)" fill-opacity="0.12"/>
  <!-- Neck -->
  <rect x="126" y="190" width="48" height="40" rx="10" fill="url(#tg4)" fill-opacity="0.1"/>
  <!-- Head -->
  <ellipse cx="150" cy="135" rx="52" ry="58" fill="url(#tg4)" fill-opacity="0.1" stroke="url(#tg4)" stroke-width="1.5" opacity="0.5"/>
  <!-- Messy/artistic hair (male) -->
  <path d="M95 130 Q93 75 118 52 Q140 36 162 38 Q188 42 205 65 Q215 85 210 130 L204 126 Q202 90 195 72 Q182 52 160 48 Q138 46 122 60 Q105 78 103 126 Z" fill="url(#tg4)" fill-opacity="0.18"/>
  <!-- Hair tufts -->
  <path d="M118 52 Q112 42 120 38 Q128 36 130 44" stroke="url(#tg4)" stroke-width="1.2" fill="url(#tg4)" fill-opacity="0.1" opacity="0.3"/>
  <path d="M155 40 Q160 30 168 35 Q172 40 165 44" stroke="url(#tg4)" stroke-width="1.2" fill="url(#tg4)" fill-opacity="0.1" opacity="0.3"/>
  <!-- Beard stubble dots -->
  <circle cx="132" cy="168" r="0.8" fill="url(#tg4)" opacity="0.12"/>
  <circle cx="140" cy="172" r="0.8" fill="url(#tg4)" opacity="0.12"/>
  <circle cx="150" cy="174" r="0.8" fill="url(#tg4)" opacity="0.12"/>
  <circle cx="160" cy="172" r="0.8" fill="url(#tg4)" opacity="0.12"/>
  <circle cx="168" cy="168" r="0.8" fill="url(#tg4)" opacity="0.12"/>
  <!-- Eyes -->
  <ellipse cx="132" cy="130" rx="6" ry="4" fill="url(#tg4)" fill-opacity="0.25"/>
  <ellipse cx="168" cy="130" rx="6" ry="4" fill="url(#tg4)" fill-opacity="0.25"/>
  <!-- Slight smile -->
  <path d="M140 155 Q150 162 160 155" stroke="url(#tg4)" stroke-width="1.5" fill="none" opacity="0.2"/>
  <!-- Decorative -->
  <circle cx="150" cy="150" r="110" stroke="url(#tg4)" stroke-width="0.5" fill="none" opacity="0.1"/>
</svg>
